<?xml version="1.0" encoding="UTF-8" standalone="no"?>
<!DOCTYPE svg PUBLIC "-//W3C//DTD SVG 20010904//EN" "http://www.w3.org/TR/2001/REC-SVG-20010904/DTD/svg10.dtd">
<svg version="1.0" xmlns="http://www.w3.org/2000/svg" width="309.000000pt" height="412.000000pt" preserveAspectRatio="xMidYMid meet" viewBox="0 0 309.000000 580.000000">
<metadata>
Created by potrace 1.16, written by Peter Selinger 2001-2019
</metadata>
<g transform="translate(0.000000,412.000000) scale(0.100000,-0.100000)" fill="#000000" stroke="none">
<path d="M220 4059 c-71 -32 -108 -66 -140 -129 -26 -51 -30 -71 -30 -136 0 -328 193 -905 516 -1544 l114 -225 0 -160 0 -160 80 -80 c44 -44 80 -83 80 -88 0 -11 -56 19 -114 61 l-49 36 6 -90 c4 -62 24 -162 67 -329 86 -336 104 -390 248 -745 122 -297 131 -316 163 -333 45 -23 220 -90 224 -85 2 2 -5 39 -16 83 -19 80 -51 238 -63 306 -6 31 -15 42 -66 73 -66 41 -75 53 -207 267 -100 163 -103 172 -77 298 20 96 52 153 100 176 l36 17 122 -48 c195 -77 276 -101 353 -106 40 -3 74 -2 75 1 2 4 37 19 78 35 41 15 93 36 115 46 22 10 72 30 112 45 l71 27 39 -18 c46 -23 77 -75 98 -166 31 -135 29 -140 -106 -357 -114 -183 -149 -230 -175 -231 -26 0 -44 -41 -58 -130 -9 -52 -29 -148 -45 -213 -24 -101 -26 -117 -12 -111 9 3 25 9 36 12 11 2 25 8 30 13 6 4 41 19 78 34 78 32 70 19 160 240 225 552 203 490 302 881 49 199 65 278 65 332 l0 71 -82 -54 c-44 -30 -87 -55 -94 -55 -6 0 31 43 85 96 l96 96 2 162 2 162 119 239 c311 623 474 1100 507 1485 5 64 3 85 -16 135 -40 108 -143 185 -245 185 -21 0 -25 -3 -19 -17 34 -83 32 -104 -32 -363 -67 -274 -170 -550 -399 -1072 -104 -235 -141 -308 -156 -308 -10 0 -10 1 5 46 25 75 9 93 -124 139 -41 15 -81 29 -89 32 -8 3 -19 8 -25 10 -5 1 -50 10 -100 19 -71 12 -148 15 -360 12 l-270 -3 -109 -38 c-60 -21 -137 -51 -170 -67 -63 -30 -71 -43 -53 -90 3 -8 10 -32 16 -53 8 -32 8 -37 -4 -27 -17 14 -26 33 -169 356 -205 467 -344 838 -385 1033 -11 47 -26 114 -36 149 -17 64 -18 189 -1 225 7 14 3 17 -25 17 -19 0 -54 -10 -79 -21z"/>
<path d="M2675 4017 c-96 -72 -211 -227 -323 -437 -55 -104 -135 -280 -129 -286 2 -2 51 49 110 113 114 127 311 323 365 363 26 19 37 38 48 80 18 68 18 170 1 194 -12 16 -17 14 -72 -27z"/>
<path d="M359 4028 c-14 -26 -6 -146 13 -200 8 -23 29 -48 58 -69 55 -40 270 -257 376 -379 43 -50 80 -86 82 -80 7 19 -175 374 -248 484 -77 118 -217 266 -250 266 -11 0 -25 -10 -31 -22z"/>
</g>
</svg>